M48
INCH,TZ
T1C0.0118
T2C0.0177
T3C0.0335
T4C0.0394
T5C0.0669
T6C0.0866
%
G90
G05
T1
X-7815Y-2650
X-7626Y-2047
X-7327Y5071
X-7232Y-2047
X-6933Y5071
X-6839Y1122
X-6839Y-2047
X-6823Y-4220
X-6567Y-4551
X-6539Y5071
X-6280Y-4547
X-6146Y5071
X-6051Y-5697
X-5957Y-4539
X-5669Y-3719
X-4925Y1260
X-4925Y866
X-4925Y472
X-4925Y79
X-4925Y-315
X-4925Y-709
X-4925Y-1102
X-4925Y-1496
X-4842Y-5337
X-4531Y1260
X-4531Y866
X-4531Y472
X-4531Y79
X-4531Y-315
X-4531Y-709
X-4531Y-1102
X-4531Y-1496
X-4232Y-5374
X-4138Y1260
X-4138Y866
X-4138Y472
X-4138Y79
X-4138Y-315
X-4138Y-709
X-4138Y-1102
X-4138Y-1496
X-4002Y-5967
X-3870Y2402
X-3559Y4882
X-3528Y-311
X-3476Y2402
X-3294Y-4866
X-3272Y-854
X-3213Y6000
X-3083Y2402
X-3059Y-5882
X-2815Y-4844
X-1748Y-4766
X-1705Y3012
X-1461Y4343
X-1240Y500
X-1063Y5969
X-866Y-1744
X-441Y5461
X-331Y-5433
X323Y2882
X390Y-3835
X488Y3630
X500Y-5370
X882Y3630
X1055Y-10
X1209Y-295
X1276Y3630
X1661Y-2504
X1661Y-3201
X1669Y3630
X1795Y5350
X1854Y-5697
X1969Y5110
X2043Y-5216
X2055Y-2504
X2134Y-4669
X2189Y5839
X2243Y3953
X2295Y4193
X2449Y-2504
X2500Y-5415
X2571Y2263
X2618Y-1264
X2748Y1043
X2752Y5084
X2843Y-2504
X2909Y2470
X3120Y1923
X3146Y5315
X3307Y-2906
X3683Y571
X3683Y217
X4016Y4472
X4016Y2748
X4020Y3157
X4339Y2516
X4441Y4984
X4874Y4937
X4949Y2955
X5172Y2743
X5413Y2524
T2
X3921Y-1177
X4303Y795
X6760Y-2760
T3
X-8315Y3000
X-8315Y-3000
X-7315Y3000
X-7315Y-3000
X-6315Y3000
X-6315Y-3000
X-5315Y3000
X-5315Y-3000
X-4315Y3000
X-4315Y-3000
X-3315Y3000
X-3315Y-3000
X-2315Y3000
X-2315Y-3000
T4
X6693Y500
X6693Y-500
X7693Y500
X7693Y-500
X8693Y500
X8693Y-500
T5
X6480Y3756
X6480Y1756
X6480Y-1756
X6480Y-3756
X8480Y3756
X8480Y1756
X8480Y-1756
X8480Y-3756
T6
X-8465Y5315
X-8465Y-5315
X8465Y5315
X8465Y-5315
M30
