%TF.GenerationSoftware,KiCad,Pcbnew,9.0.1-9.0.1-0~ubuntu22.04.1*%
%TF.CreationDate,2025-04-14T00:42:50-04:00*%
%TF.ProjectId,FlatSat,466c6174-5361-4742-9e6b-696361645f70,rev?*%
%TF.SameCoordinates,Original*%
%TF.FileFunction,Soldermask,Top*%
%TF.FilePolarity,Negative*%
%FSLAX46Y46*%
G04 Gerber Fmt 4.6, Leading zero omitted, Abs format (unit mm)*
G04 Created by KiCad (PCBNEW 9.0.1-9.0.1-0~ubuntu22.04.1) date 2025-04-14 00:42:50*
%MOMM*%
%LPD*%
G01*
G04 APERTURE LIST*
G04 Aperture macros list*
%AMRoundRect*
0 Rectangle with rounded corners*
0 $1 Rounding radius*
0 $2 $3 $4 $5 $6 $7 $8 $9 X,Y pos of 4 corners*
0 Add a 4 corners polygon primitive as box body*
4,1,4,$2,$3,$4,$5,$6,$7,$8,$9,$2,$3,0*
0 Add four circle primitives for the rounded corners*
1,1,$1+$1,$2,$3*
1,1,$1+$1,$4,$5*
1,1,$1+$1,$6,$7*
1,1,$1+$1,$8,$9*
0 Add four rect primitives between the rounded corners*
20,1,$1+$1,$2,$3,$4,$5,0*
20,1,$1+$1,$4,$5,$6,$7,0*
20,1,$1+$1,$6,$7,$8,$9,0*
20,1,$1+$1,$8,$9,$2,$3,0*%
G04 Aperture macros list end*
%ADD10RoundRect,0.075000X-0.075000X0.350000X-0.075000X-0.350000X0.075000X-0.350000X0.075000X0.350000X0*%
%ADD11RoundRect,0.075000X-0.350000X-0.075000X0.350000X-0.075000X0.350000X0.075000X-0.350000X0.075000X0*%
%ADD12RoundRect,0.150000X0.950000X-0.150000X0.950000X0.150000X-0.950000X0.150000X-0.950000X-0.150000X0*%
%ADD13R,0.500000X0.350000*%
%ADD14C,3.800000*%
%ADD15RoundRect,0.200000X0.275000X-0.200000X0.275000X0.200000X-0.275000X0.200000X-0.275000X-0.200000X0*%
%ADD16RoundRect,0.237500X0.300000X0.237500X-0.300000X0.237500X-0.300000X-0.237500X0.300000X-0.237500X0*%
%ADD17C,2.500000*%
%ADD18RoundRect,0.237500X0.237500X-0.300000X0.237500X0.300000X-0.237500X0.300000X-0.237500X-0.300000X0*%
%ADD19O,1.000000X4.000000*%
%ADD20C,1.000000*%
%ADD21R,1.600000X1.250000*%
%ADD22R,1.700000X1.700000*%
%ADD23O,1.700000X1.700000*%
%ADD24R,0.800000X0.500000*%
%ADD25R,0.800000X0.400000*%
G04 APERTURE END LIST*
D10*
%TO.C,U2*%
X6750000Y2700000D03*
X6250000Y2700000D03*
X5750000Y2700000D03*
X5250000Y2700000D03*
X4750000Y2700000D03*
X4250000Y2700000D03*
D11*
X3550000Y2000000D03*
X3550000Y1500000D03*
X3550000Y1000000D03*
X3550000Y500000D03*
X3550000Y0D03*
X3550000Y-500000D03*
D10*
X4250000Y-1200000D03*
X4750000Y-1200000D03*
X5250000Y-1200000D03*
X5750000Y-1200000D03*
X6250000Y-1200000D03*
X6750000Y-1200000D03*
D11*
X7450000Y-500000D03*
X7450000Y0D03*
X7450000Y500000D03*
X7450000Y1000000D03*
X7450000Y1500000D03*
X7450000Y2000000D03*
%TD*%
D12*
%TO.C,U6*%
X10200000Y-13720000D03*
X10200000Y-12450000D03*
X10200000Y-11180000D03*
X10200000Y-9910000D03*
X10200000Y-8640000D03*
X10200000Y-7370000D03*
X10200000Y-6100000D03*
X10200000Y-4830000D03*
X-800000Y-8640000D03*
X-800000Y-9910000D03*
X-800000Y-11180000D03*
X-800000Y-12450000D03*
%TD*%
D13*
%TO.C,U3*%
X-13910000Y-12505000D03*
X-13910000Y-13155000D03*
X-13910000Y-13805000D03*
X-13910000Y-14455000D03*
X-15960000Y-14455000D03*
X-15960000Y-13805000D03*
X-15960000Y-13155000D03*
X-15960000Y-12505000D03*
%TD*%
D14*
%TO.C,REF\u002A\u002A*%
X-21500000Y-13500000D03*
%TD*%
D15*
%TO.C,R6*%
X-12657500Y-14350000D03*
X-12657500Y-12700000D03*
%TD*%
D16*
%TO.C,C1*%
X1375000Y-2500000D03*
X-350000Y-2500000D03*
%TD*%
%TO.C,C5*%
X1375000Y1670000D03*
X-350000Y1670000D03*
%TD*%
%TO.C,C4*%
X4537500Y-2500000D03*
X2812500Y-2500000D03*
%TD*%
D17*
%TO.C,AE1*%
X21540000Y-4460000D03*
X16460000Y-4460000D03*
X21540000Y-9540000D03*
X16460000Y-9540000D03*
%TD*%
D14*
%TO.C,REF\u002A\u002A*%
X21500000Y-13500000D03*
%TD*%
D17*
%TO.C,AE2*%
X21540000Y9540000D03*
X16460000Y9540000D03*
X21540000Y4460000D03*
X16460000Y4460000D03*
%TD*%
D16*
%TO.C,C2*%
X7712500Y-2500000D03*
X5987500Y-2500000D03*
%TD*%
D18*
%TO.C,C3*%
X-17210000Y-14342500D03*
X-17210000Y-12617500D03*
%TD*%
D14*
%TO.C,REF\u002A\u002A*%
X21500000Y13500000D03*
%TD*%
D19*
%TO.C,U1*%
X-21120000Y-8720000D03*
D20*
X-21120000Y-7620000D03*
D19*
X-18580000Y-8720000D03*
D20*
X-18580000Y-7620000D03*
D19*
X-16040000Y-8720000D03*
D20*
X-16040000Y-7620000D03*
D19*
X-13500000Y-8720000D03*
D20*
X-13500000Y-7620000D03*
D19*
X-10960000Y-8720000D03*
D20*
X-10960000Y-7620000D03*
D19*
X-8420000Y-8720000D03*
D20*
X-8420000Y-7620000D03*
D19*
X-5880000Y-8720000D03*
D20*
X-5880000Y-7620000D03*
D19*
X-5880000Y8720000D03*
D20*
X-5880000Y7620000D03*
D19*
X-8420000Y8720000D03*
D20*
X-8420000Y7620000D03*
D19*
X-10960000Y8720000D03*
D20*
X-10960000Y7620000D03*
D19*
X-13500000Y8720000D03*
D20*
X-13500000Y7620000D03*
D19*
X-16040000Y8720000D03*
D20*
X-16040000Y7620000D03*
D19*
X-18580000Y8720000D03*
D20*
X-18580000Y7620000D03*
D19*
X-21120000Y8720000D03*
D20*
X-21120000Y7620000D03*
D19*
X-19850000Y-8720000D03*
X-17310000Y-8720000D03*
X-14770000Y-8720000D03*
X-12230000Y-8720000D03*
X-9690000Y-8720000D03*
X-7150000Y-8720000D03*
X-7150000Y8720000D03*
X-9690000Y8720000D03*
X-12230000Y8720000D03*
%TD*%
D21*
%TO.C,D2*%
X16750000Y12625000D03*
X16750000Y14375000D03*
X13250000Y14375000D03*
X13250000Y12625000D03*
%TD*%
%TO.C,D1*%
X13250000Y-12625000D03*
X13250000Y-14375000D03*
X16750000Y-14375000D03*
X16750000Y-12625000D03*
%TD*%
D15*
%TO.C,R5*%
X-11405000Y-14355000D03*
X-11405000Y-12705000D03*
%TD*%
D20*
%TO.C,TP2*%
X-2000000Y-13690000D03*
%TD*%
D22*
%TO.C,J4*%
X17000000Y-1270000D03*
D23*
X17000000Y1270000D03*
X19540000Y-1270000D03*
X19540000Y1270000D03*
X22080000Y-1270000D03*
X22080000Y1270000D03*
%TD*%
D20*
%TO.C,TP1*%
X-2000000Y4750000D03*
%TD*%
D12*
%TO.C,U5*%
X10200000Y4780000D03*
X10200000Y6050000D03*
X10200000Y7320000D03*
X10200000Y8590000D03*
X10200000Y9860000D03*
X10200000Y11130000D03*
X10200000Y12400000D03*
X10200000Y13670000D03*
X-800000Y9860000D03*
X-800000Y8590000D03*
X-800000Y7320000D03*
X-800000Y6050000D03*
%TD*%
D24*
%TO.C,RN1*%
X9100000Y1200000D03*
D25*
X9100000Y400000D03*
X9100000Y-400000D03*
D24*
X9100000Y-1200000D03*
X10900000Y-1200000D03*
D25*
X10900000Y-400000D03*
X10900000Y400000D03*
D24*
X10900000Y1200000D03*
%TD*%
D14*
%TO.C,REF\u002A\u002A*%
X-21500000Y13500000D03*
%TD*%
D15*
%TO.C,R4*%
X-10130000Y-14355000D03*
X-10130000Y-12705000D03*
%TD*%
M02*
